<svg id="visual" viewBox="0 0 960 540" width="960" height="540" xmlns="http://www.w3.org/2000/svg" xmlns:xlink="http://www.w3.org/1999/xlink" version="1.1"><rect x="0" y="0" width="960" height="540" fill="#001220"></rect><path d="M0 265L16 263C32 261 64 257 96 254.3C128 251.7 160 250.3 192 253C224 255.7 256 262.3 288 267.7C320 273 352 277 384 271.8C416 266.7 448 252.3 480 253C512 253.7 544 269.3 576 272.3C608 275.3 640 265.7 672 263.3C704 261 736 266 768 260.8C800 255.7 832 240.3 864 242.7C896 245 928 265 944 275L960 285L960 0L944 0C928 0 896 0 864 0C832 0 800 0 768 0C736 0 704 0 672 0C640 0 608 0 576 0C544 0 512 0 480 0C448 0 416 0 384 0C352 0 320 0 288 0C256 0 224 0 192 0C160 0 128 0 96 0C64 0 32 0 16 0L0 0Z" fill="#ffffff"></path><path d="M0 221L16 214.8C32 208.7 64 196.3 96 191.8C128 187.3 160 190.7 192 199.8C224 209 256 224 288 229.2C320 234.3 352 229.7 384 226.5C416 223.3 448 221.7 480 215C512 208.3 544 196.7 576 198.7C608 200.7 640 216.3 672 224.7C704 233 736 234 768 226.2C800 218.3 832 201.7 864 202.8C896 204 928 223 944 232.5L960 242L960 0L944 0C928 0 896 0 864 0C832 0 800 0 768 0C736 0 704 0 672 0C640 0 608 0 576 0C544 0 512 0 480 0C448 0 416 0 384 0C352 0 320 0 288 0C256 0 224 0 192 0C160 0 128 0 96 0C64 0 32 0 16 0L0 0Z" fill="#f5f5f5"></path><path d="M0 156L16 160C32 164 64 172 96 172.5C128 173 160 166 192 166.8C224 167.7 256 176.3 288 179.2C320 182 352 179 384 175.2C416 171.3 448 166.7 480 167.3C512 168 544 174 576 174.8C608 175.7 640 171.3 672 170.8C704 170.3 736 173.7 768 178.3C800 183 832 189 864 189.8C896 190.7 928 186.3 944 184.2L960 182L960 0L944 0C928 0 896 0 864 0C832 0 800 0 768 0C736 0 704 0 672 0C640 0 608 0 576 0C544 0 512 0 480 0C448 0 416 0 384 0C352 0 320 0 288 0C256 0 224 0 192 0C160 0 128 0 96 0C64 0 32 0 16 0L0 0Z" fill="#eaeaea"></path><path d="M0 127L16 130.3C32 133.7 64 140.3 96 140.3C128 140.3 160 133.7 192 132.8C224 132 256 137 288 139.7C320 142.3 352 142.7 384 145.2C416 147.7 448 152.3 480 148.5C512 144.7 544 132.3 576 129.8C608 127.3 640 134.7 672 137.3C704 140 736 138 768 136.7C800 135.3 832 134.7 864 131.2C896 127.7 928 121.3 944 118.2L960 115L960 0L944 0C928 0 896 0 864 0C832 0 800 0 768 0C736 0 704 0 672 0C640 0 608 0 576 0C544 0 512 0 480 0C448 0 416 0 384 0C352 0 320 0 288 0C256 0 224 0 192 0C160 0 128 0 96 0C64 0 32 0 16 0L0 0Z" fill="#e0e0e0"></path><path d="M0 84L16 84.2C32 84.3 64 84.7 96 89C128 93.3 160 101.7 192 100C224 98.3 256 86.7 288 81.8C320 77 352 79 384 80.3C416 81.7 448 82.3 480 85.7C512 89 544 95 576 97.8C608 100.7 640 100.3 672 95.7C704 91 736 82 768 79.8C800 77.7 832 82.3 864 88.3C896 94.3 928 101.7 944 105.3L960 109L960 0L944 0C928 0 896 0 864 0C832 0 800 0 768 0C736 0 704 0 672 0C640 0 608 0 576 0C544 0 512 0 480 0C448 0 416 0 384 0C352 0 320 0 288 0C256 0 224 0 192 0C160 0 128 0 96 0C64 0 32 0 16 0L0 0Z" fill="#d6d6d6"></path><path d="M0 52L16 51.5C32 51 64 50 96 48.2C128 46.3 160 43.7 192 43.7C224 43.7 256 46.3 288 48.2C320 50 352 51 384 52.5C416 54 448 56 480 55.7C512 55.3 544 52.7 576 50.5C608 48.3 640 46.7 672 45.5C704 44.3 736 43.7 768 44.7C800 45.7 832 48.3 864 50.7C896 53 928 55 944 56L960 57L960 0L944 0C928 0 896 0 864 0C832 0 800 0 768 0C736 0 704 0 672 0C640 0 608 0 576 0C544 0 512 0 480 0C448 0 416 0 384 0C352 0 320 0 288 0C256 0 224 0 192 0C160 0 128 0 96 0C64 0 32 0 16 0L0 0Z" fill="#cccccc"></path></svg>