<svg id="visual" viewBox="0 0 900 600" width="900" height="600" xmlns="http://www.w3.org/2000/svg" xmlns:xlink="http://www.w3.org/1999/xlink" version="1.1"><rect x="0" y="0" width="900" height="600" fill="#f0f8ff"></rect><path d="M0 408L37.5 393.8C75 379.7 150 351.3 225 361C300 370.7 375 418.3 450 435.8C525 453.3 600 440.7 675 423.8C750 407 825 386 862.5 375.5L900 365L900 601L862.5 601C825 601 750 601 675 601C600 601 525 601 450 601C375 601 300 601 225 601C150 601 75 601 37.5 601L0 601Z" fill="#ddeefd" stroke-linecap="round" stroke-linejoin="miter"></path></svg>